<?xml version="1.0" encoding="UTF-8" standalone="yes"?>
<svg xmlns="http://www.w3.org/2000/svg" xmlns:xlink="http://www.w3.org/1999/xlink" width="137.072px" height="571.293px" version="1.1" viewBox="-91.333 742.209 68.536 285.646">
  <!--
	Exported with Concepts: Smarter Sketching
	Version: 1947 on iOS 16.4
	https://concepts.app/
	-->
  <title>A4AF6ECB-360D-441C-A274-951C40F8B0F7</title>
  <desc>Drawing exported from Concepts: Smarter Sketching</desc>
  <defs></defs>
  <g id="Wire" opacity="1.000">
    <path id="STROKE_9d06e449-adfd-457d-84e7-39af1169968d" opacity="1.000" fill="none" stroke="#9378e3" stroke-width="3.579" stroke-opacity="1.000" stroke-linecap="round" stroke-linejoin="round" d="M -64.000 1024.000 L -64.000 763.152 "></path>
    <path id="STROKE_84756661-ea73-46e6-8a27-e7b194810edb" opacity="1.000" fill="none" stroke="#9378e3" stroke-width="3.579" stroke-opacity="1.000" stroke-linecap="round" stroke-linejoin="round" d="M -70.359 768.551 L -70.101 768.964 Q -69.825 768.926 -69.805 768.885 Q -69.705 768.844 -67.850 766.666 Q -65.994 764.488 -65.072 763.145 Q -64.150 761.801 -63.192 760.697 Q -62.234 759.592 -61.447 758.453 Q -61.632 758.559 -61.645 758.584 Q -61.893 758.858 -61.899 758.876 Q -61.972 758.997 -62.228 759.769 Q -62.483 760.541 -61.858 761.854 Q -61.233 763.167 -60.692 763.863 Q -60.152 764.559 -59.738 765.083 Q -59.325 765.607 -58.743 766.176 Q -58.161 766.744 -57.615 767.062 Q -57.609 766.994 -57.828 766.686 "></path>
    <path id="STROKE_ac831ccb-23d7-4576-8d8a-4cef44ff093e" opacity="1.000" fill="none" stroke="#9378e3" stroke-width="nan" stroke-opacity="nan" stroke-linecap="round" stroke-linejoin="round" d="M -64.000 1008.000 L -64.000 1008.000 "></path>
    <path id="STROKE_d19b5cdc-f601-4c3d-8a0a-83997f948425" opacity="1.000" fill="none" stroke="#f3ba38" stroke-width="3.579" stroke-opacity="1.000" stroke-linecap="round" stroke-linejoin="round" d="M -72.000 1008.000 L -64.000 1008.000 L -56.000 1008.000 "></path>
    <path id="STROKE_12f64246-394d-488b-ae40-b44eb866eb98" opacity="1.000" fill="none" stroke="#9378e3" stroke-width="3.579" stroke-opacity="1.000" stroke-linecap="round" stroke-linejoin="round" d="M -72.000 976.000 L -64.000 976.000 L -56.000 976.000 "></path>
    <path id="STROKE_3d2750dd-6f2d-4cdc-a553-faa273d0bf9e" opacity="1.000" fill="none" stroke="#9378e3" stroke-width="nan" stroke-opacity="nan" stroke-linecap="round" stroke-linejoin="round" d="M -72.000 896.000 L -72.000 896.000 "></path>
    <path id="STROKE_00b356d9-165b-445d-8c24-06700b9108bb" opacity="1.000" fill="none" stroke="#9378e3" stroke-width="3.579" stroke-opacity="1.000" stroke-linecap="round" stroke-linejoin="round" d="M -72.000 896.000 L -64.000 896.000 L -59.653 896.000 "></path>
    <path id="STROKE_fdf8aecc-5085-4f10-8290-292bf98f8966" opacity="1.000" fill="none" stroke="#9378e3" stroke-width="3.579" stroke-opacity="1.000" stroke-linecap="round" stroke-linejoin="round" d="M -64.000 896.000 L -56.000 896.000 "></path>
    <path id="STROKE_d7478d9b-a371-45b4-962a-a1a4ee6c74fa" opacity="1.000" fill="none" stroke="#9378e3" stroke-width="3.579" stroke-opacity="1.000" stroke-linecap="round" stroke-linejoin="round" d="M -72.000 832.000 L -64.000 832.000 L -56.000 832.000 "></path>
  </g>
  <g id="Text" opacity="1.000">
    <g id="TEXT_313a1436-2bee-4b97-9fbd-834a37714041" opacity="1.000" transform="matrix(0.000001 -0.543893 0.468996 0.000001 -53.273643 1018.820129)">
      <text x="0" y="0" text-anchor="start" alignment-baseline="mathematical" font-size="24.000" font-weight="lighter" fill="#f3ba38" font-family="'Helvetica Neue', Helvetica, Arial, sans-serif">
        <tspan x="0" dy="1.000em">now</tspan>
      </text>
    </g>
    <g id="TEXT_997e8b59-fa98-46f6-9d8c-b6889f021ccd" opacity="1.000" transform="matrix(-0.000000 -0.460676 0.460676 -0.000000 -88.532578 989.754456)">
      <text x="0" y="0" text-anchor="start" alignment-baseline="mathematical" font-size="24.000" font-weight="lighter" fill="#9378e3" font-family="'Helvetica Neue', Helvetica, Arial, sans-serif">
        <tspan x="0" dy="1.000em">41.2</tspan>
      </text>
    </g>
    <g id="TEXT_2df8aea2-577e-44eb-9bb7-f22ed4a4a333" opacity="1.000" transform="matrix(-0.000000 -0.460676 0.460676 -0.000000 -86.909805 903.226501)">
      <text x="0" y="0" text-anchor="start" alignment-baseline="mathematical" font-size="24.000" font-weight="lighter" fill="#9378e3" font-family="'Helvetica Neue', Helvetica, Arial, sans-serif">
        <tspan x="0" dy="1.000em">49</tspan>
      </text>
    </g>
    <g id="TEXT_43fadfde-d525-4dd0-bc7f-b3ac48bb338a" opacity="1.000" transform="matrix(-0.000000 -0.460676 0.460676 -0.000000 -87.092239 844.958130)">
      <text x="0" y="0" text-anchor="start" alignment-baseline="mathematical" font-size="24.000" font-weight="lighter" fill="#9378e3" font-family="'Helvetica Neue', Helvetica, Arial, sans-serif">
        <tspan x="0" dy="1.000em">56.3</tspan>
      </text>
    </g>
    <g id="TEXT_5e3d6f14-363f-442e-a4f7-8e42294a7b0d" opacity="1.000" transform="matrix(-0.000000 -0.460676 0.460676 -0.000000 -57.609070 768.964355)">
      <text x="0" y="0" text-anchor="start" alignment-baseline="mathematical" font-size="24.000" font-weight="lighter" fill="#9378e3" font-family="'Helvetica Neue', Helvetica, Arial, sans-serif">
        <tspan x="0" dy="1.000em">time</tspan>
      </text>
    </g>
    <g id="TEXT_afb47137-c126-47ce-a81c-c500101e01b2" opacity="1.000" transform="matrix(-0.000000 -0.460676 0.460676 -0.000000 -39.417774 1015.739502)">
      <text x="0" y="0" text-anchor="start" alignment-baseline="mathematical" font-size="24.000" font-weight="lighter" fill="#f3ba38" font-family="'Helvetica Neue', Helvetica, Arial, sans-serif">
        <tspan x="0" dy="1.000em">37</tspan>
      </text>
    </g>
  </g>
</svg>